<svg role="img" viewBox="0 0 24 24" xmlns="http://www.w3.org/2000/svg"><title>Instagram</title><path fill="#000" d="M12 2.163c3.204 0 3.584.012 4.849.07 1.366.062 2.633.34 3.608 1.314.975.975 1.252 2.242 1.314 3.608.058 1.265.069 1.645.069 4.849s-.011 3.584-.069 4.849c-.062 1.366-.339 2.633-1.314 3.608-.975.975-2.242 1.252-3.608 1.314-1.265.058-1.645.069-4.849.069s-3.584-.011-4.849-.069c-1.366-.062-2.633-.339-3.608-1.314-.975-.975-1.252-2.242-1.314-3.608C2.175 15.747 2.163 15.367 2.163 12s.012-3.584.07-4.849c.062-1.366.34-2.633 1.314-3.608.975-.975 2.242-1.252 3.608-1.314C8.416 2.175 8.796 2.163 12 2.163zM12 0C8.741 0 8.332.013 7.052.072 5.78.13 4.602.434 3.6 1.436 2.597 2.439 2.293 3.617 2.235 4.889 2.176 6.169 2.163 6.579 2.163 10.838s.013 4.669.072 5.949c.058 1.272.362 2.45 1.365 3.453 1.003 1.003 2.181 1.307 3.453 1.365 1.28.059 1.689.072 5.948.072s4.669-.013 5.949-.072c1.272-.058 2.45-.362 3.453-1.365 1.003-1.003 1.307-2.181 1.365-3.453.059-1.28.072-1.689.072-5.948s-.013-4.669-.072-5.949c-.058-1.272-.362-2.45-1.365-3.453-1.003-1.003-2.181-1.307-3.453-1.365C15.669.013 15.259 0 12 0zM12 5.838a6.162 6.162 0 1 0 0 12.324A6.162 6.162 0 0 0 12 5.838zm0 10.162a3.999 3.999 0 1 1 0-7.998 3.999 3.999 0 0 1 0 7.998zM18.406 4.155a1.44 1.44 0 1 1-2.881 0 1.44 1.44 0 0 1 2.881 0z"/></svg>