<svg xmlns="http://www.w3.org/2000/svg" viewBox="0 0 64 64" fill="none">
  <circle cx="32" cy="32" r="32" fill="#25D366"/>
  <path fill="#fff" d="M45.3 37.4c-.6-.3-3.6-1.8-4.1-2-.6-.2-1-.3-1.4.3-.4.6-1.6 2-2 2.4-.4.4-.8.5-1.4.2-.6-.3-2.4-.9-4.6-2.9-1.7-1.5-2.9-3.4-3.2-4-.3-.6 0-.9.2-1.2.2-.2.6-.8.9-1.2.3-.4.4-.6.6-1 .2-.4.1-.8 0-1.1-.2-.3-1.4-3.4-1.9-4.7-.5-1.3-1-.1-1.4-.1h-1.2c-.4 0-1 .1-1.5.6-.5.5-2 1.9-2 4.7s2 5.5 2.2 5.9c.3.4 4 6.2 9.7 8.7 1.4.6 2.5.9 3.4 1.2 1.4.4 2.7.4 3.7.2 1.1-.2 3.6-1.5 4.1-3 .5-1.4.5-2.7.4-3-.2-.2-.6-.4-1.2-.7Z"/>
</svg>